<?xml version="1.0" encoding="utf-8"?>
<svg version="1.1" xmlns="http://www.w3.org/2000/svg" xmlns:xlink="http://www.w3.org/1999/xlink" x="0px" y="0px" viewBox="0 0 450 200" style="enable-background:new 0 0 450 200;" xml:space="preserve">
<g>
	<g>
		<g>
			<polygon fill="#ffffff" points="72.1,64.8 30.4,64.8 47.8,0 106.2,0 103.5,10.3 55.7,10.3 43.8,54.6 74.9,54.6" />
			<polygon fill="#ffffff" points="74.4,119.4 91.8,54.6 81.2,54.6 66.5,109.1 28.8,109.1 26.1,119.4" />
		</g>
		<g>
			<polygon fill="#ffffff" points="131.5,95 128.8,105.3 145.2,105.3 125.4,179.1 136.1,179.1 158.6,95" />
			<polygon fill="#ffffff" points="128.8,143.8 92.4,143.8 118.9,44.9 151,44.9 153.7,34.7 111,34.7 79,154.1 126.1,154.1" />
		</g>
		<g>
			<path fill="#ffffff" d="M60,147.3c-5,0-9-4-9-9s4-9,9-9s9,4,9,9S65,147.3,60,147.3z" />
			<path fill="#ffffff" d="M13.1,129.3L13.1,129.3c0-7.1,1.4-13.9,3.7-20.2H3.1c-2,6.6-3.1,13.5-3.1,20.7h0.1 c0.3,33.1,22.9,60.8,53.5,68.9l3.3-12.6C31.7,179.5,13.1,156.6,13.1,129.3z" />
			<path fill="#ffffff" d="M39.2,129.3l-13-0.1c0.1,21.1,14.5,38.9,34.1,44.1l3.3-12.5C49.6,157.1,39.3,144.4,39.2,129.3z" />
			<circle fill="#ffffff" cx="60" cy="138.3" r="9" />
		</g>
	</g>
	<g>
		<path fill="#ffffff" d="M190.9,132.2c-5,0.7-9.9,1.4-13.7,1.9l0.4-2.8l3.7-0.4l3.6-13.2H182l0.8-2.8h17.9l-0.8,2.8h-2.6l-4.7,17.1
			h-2.5L190.9,132.2z M184.5,142c-0.7,1.2-1.3,2.3-2.1,3.4c1.2,1.9,2.5,4.4,3,6l-2.2,2.1c-0.5-1.6-1.6-3.8-2.6-5.7
			c-2.4,3-5,5.4-7.7,7.2c0.1-0.8,0-2.5-0.1-3.3c3.5-2.2,7.3-5.8,9.7-10.4L184.5,142z M205.8,136.6c-3.4,0.9-7.6,1.6-11.9,2.2
			l-5.3,19.3h-2.8l5.2-19c-4.1,0.5-8.1,0.9-11.6,1.1c-0.1-0.8-0.3-2.5-0.6-3.3c8.1-0.1,19-1.2,25.6-2.7L205.8,136.6z M187.5,117.7
			l-0.7,2.7h7.4l0.7-2.7H187.5z M185.4,125.2h7.4l0.7-2.6h-7.4L185.4,125.2z M183.9,130.6c2.4-0.3,5-0.7,7.7-1.1l0.6-2.1h-7.4
			L183.9,130.6z M200.4,120.9c1.5,1.1,3.1,2.6,4.6,4c1.7-1.5,3.3-3.2,4.7-5.1h-10.1l0.8-3h11.5l0.5-0.1l1.4,1.1
			c-2,3.4-4.4,6.3-7.1,8.8c1.7,1.7,3.1,3.5,4,4.9l-2.6,2.5c-0.9-1.5-2.3-3.4-4-5.3c-2.9,2.3-5.9,4-8.8,5.2c-0.1-0.8-0.5-1.9-0.8-2.6
			c2.6-1,5.3-2.4,7.9-4.4c-1.4-1.4-3-2.8-4.4-3.9L200.4,120.9z M203.7,140.2c-0.6,1.3-1.3,2.5-2.1,3.7c0.5,3,2.1,6,4.1,7.5
			c-0.8,0.6-1.8,1.7-2.4,2.5c-1.7-1.6-2.9-4.3-3.5-7.2c-2.5,3.3-5.2,6-8,8c0.1-0.8-0.1-2.5-0.2-3.3c3.8-2.5,7.6-6.5,10.3-11.8
			L203.7,140.2z"/>
		<path fill="#ffffff" d="M221.8,145.6l-0.5,1.7h-2.7l5.4-19.6c-1.6,1.8-3.4,3.4-4.9,4.8c-0.3-0.6-1-1.9-1.5-2.5
			c4.8-3.8,10.1-9.9,13.9-16.2l2.4,1c-1.3,2-2.6,4-4,5.8h9.2c0-1.7-0.2-4-0.5-5.7l2.7-1.2c0.4,2.1,0.8,4.8,0.7,6.5l-0.7,0.3h11.6
			l-0.9,3.1h-11.8l-1.1,4.2h9.6l-0.8,2.9h-9.6l-1.1,4.1h9.7l-0.8,3h-9.7l-1.2,4.6h11.4l-0.8,3.1L221.8,145.6L221.8,145.6z
			 M211,156.8c2.2-2.1,4.9-5.8,6.8-9.2l2.4,0.9c-1.8,3.3-4.6,7.3-7,9.7L211,156.8z M237.5,123.8h-9.8l-1.2,4.2h9.8L237.5,123.8z
			 M235.5,130.9h-9.8l-1.1,4.1h9.8L235.5,130.9z M233.6,138h-9.8l-1.2,4.6h9.8L233.6,138z M226.4,148.7c-0.3,2.8-0.9,6.5-1.4,8.6
			l-2.9,0.5c0.6-2.2,1.3-6,1.6-8.8L226.4,148.7z M234.2,148.3c0.3,2.8,0.3,6.4,0,8.7l-2.9,0.8c0.3-2.3,0.4-6.1,0.2-8.9L234.2,148.3z
			 M241.9,147.5c1.1,3,2.1,7,2.4,9.6l-3.1,1.3c-0.2-2.6-1.1-6.7-2.2-9.7L241.9,147.5z"/>
		<path fill="#ffffff" d="M294.4,119.5l-0.9,3.3h-25.3l-3,11c-2.1,7.6-5.5,17.8-12,24.6c-0.2-0.7-1.1-1.7-1.6-2.2
			c4-4.2,6.6-9.6,8.5-14.7c-2,1.4-4,2.7-5.8,3.9l-0.1-3.2c1.8-1,4.5-2.7,7.2-4.4c0.5-1.4,0.8-2.7,1.2-4l0.6-2.4l-2.6,1.4
			c0-2.2-0.6-5.7-1.1-8.4l2.6-1.2c0.6,2.4,1.2,5.7,1.3,7.8l3.1-11.5h13.1c0-1.5-0.2-3.4-0.3-4.8l2.9-0.9c0.3,1.8,0.5,4.2,0.5,5.8
			h11.7V119.5z M285.2,140.9c-2.8,4.9-6.4,8.6-10.3,11.3c2.4,1.5,5.6,2.4,9.3,2.9c-0.7,0.8-1.8,2.2-2.3,3.2c-4.3-0.7-7.6-2-10.2-4.1
			c-3.8,2-7.9,3.3-12,4.1c0.1-0.9-0.1-2.3-0.3-3.1c3.5-0.6,7-1.5,10.3-3.1c-1.9-2.3-3-5.3-3.4-9.1h-0.8l0.8-3.1h17.1l0.5-0.1
			L285.2,140.9z M284.1,132.9c-0.4,1.3-0.4,1.7,0.2,1.7h2.9c0.6,0,1.3,0,1.9-0.2c-0.2,1-0.5,2.4-0.6,3.3c-0.5,0.2-1.4,0.2-2.1,0.2
			h-3c-2.7,0-2.9-1.3-1.9-5.1l1.1-4h-7.8l-0.4,1.4c-1,3.6-3,7.3-8.4,9.6c-0.1-0.8-0.6-2.2-0.9-2.8c4.7-1.8,6.1-4.4,6.8-7l1.2-4.4
			h13.1L284.1,132.9z M268.8,143.1c0.5,3.1,1.8,5.6,3.8,7.5c3.1-1.8,5.9-4.3,8.2-7.5H268.8z"/>
		<path fill="#ffffff" d="M309.8,124.9c-1.5,2.3-3.3,4.5-5.1,6.7l-7.2,26.8h-2.6l6.1-22.5c-1.6,1.7-3.2,3.2-4.7,4.5
			c-0.1-0.7-0.4-2.4-0.7-3.1c4.1-3.3,8.8-8.3,12.2-13.4L309.8,124.9z M311.6,115.2c-3.1,4.1-7.7,8.5-11.4,11.5
			c-0.1-0.7-0.6-1.9-0.8-2.6c3.4-2.6,7.6-6.7,10-10.1L311.6,115.2z M325.6,139.7c-2.8,4.7-6.2,8.3-10.1,11.2
			c2.4,1.9,5.3,3.4,8.7,4.2c-0.8,0.8-1.9,2.1-2.5,3.1c-3.6-1.1-6.7-2.9-9.1-5.3c-4,2.5-8.3,4.2-12.4,5.4c0-0.9-0.2-2.3-0.5-3.1
			c3.6-0.8,7.4-2.3,11-4.3c-1.1-1.5-2.1-3.2-2.8-4.9c-1.3,1.2-2.6,2.2-3.8,3.2c-0.2-0.7-0.8-2-1.2-2.7c1.3-0.9,2.7-2,4.1-3.2
			c-0.4-1.1-0.6-2.4-0.8-3.6l2.5-1c0.1,0.9,0.3,1.7,0.5,2.5c1.8-1.8,3.6-3.9,5.1-6.1c-5.4,0.4-6.5,0.6-7.3,1c0.1-0.7,0.1-2.4,0-3.3
			c1.1-0.2,2.7-1,4.8-2.3c1-0.6,3.1-2,5.7-3.7c-5.6,0.3-6.7,0.6-7.3,0.9c0.1-0.8,0.1-2.5,0-3.5c0.7-0.1,1.7-0.8,2.9-1.7
			c1.2-0.9,5.4-4.4,8.7-7.9l2.3,1.5c-3,3-6.3,5.9-9.2,8l6.7-0.3c2.1-1.6,4.3-3.4,6.3-5.2l2,1.8c-5.7,4.7-11.3,8.7-16.7,11.9
			l11.9-0.8c-0.5-1.4-1-2.8-1.5-4l2.6-1.5c1.3,3.2,2.8,7.6,3.3,10.5l-2.7,1.7c-0.2-1.1-0.4-2.5-0.9-4l-8.5,0.7
			c-0.9,1.3-1.8,2.7-2.8,3.9h9.1l0.5-0.1L325.6,139.7z M312.1,141.8c-0.6,0.7-1.3,1.4-1.9,2.1c0.8,2,2,3.8,3.5,5.3
			c2.8-2,5.5-4.5,7.7-7.4L312.1,141.8L312.1,141.8z"/>
		<path fill="#ffffff" d="M339.4,144.6c-1.8,3.4-4.4,7.2-6.4,9.6c-0.3-0.4-1-1.4-1.5-1.7c2.1-2.3,4.3-5.6,5.8-8.7L339.4,144.6z
			 M344.9,141.2l-4.5,16.8h-2.7l4.5-16.8h-7.4l0.8-3.1h7.4l1.4-5.1h-7.6l0.8-3.1h10.3c1.3-2.2,3-5.4,4.1-7.6l2.4,0.7
			c-1.3,2.3-2.7,4.9-4,7h4.7l-0.8,3.1h-7.2l-1.4,5.1h6.7l-0.8,3.1L344.9,141.2L344.9,141.2z M356.6,122.1h-16.3l0.8-3h7.3
			c-0.1-1.5-0.3-3.1-0.5-4.4l2.9-0.9c0.3,1.6,0.6,3.7,0.7,5.3h5.9L356.6,122.1z M342.1,129.8c0.3-1.8,0.5-4.6,0.4-6.7l2.4-0.7
			c0.2,2.1,0.1,4.8-0.2,6.6L342.1,129.8z M347.8,143.5c0.6,2.4,1,5.5,1.1,7.6l-2.4,1.5c0-2.1-0.5-5.4-1-7.8L347.8,143.5z
			 M370.4,133.6h-4.1l-6.5,24.4H357l6.5-24.4h-5.1l-0.5,1.7c-1.9,6.9-4.9,16.4-10,22.7c-0.3-0.7-1-1.8-1.5-2.2
			c4.7-5.8,7.2-14.1,8.9-20.6l4.5-16.6c4.4-0.9,9.6-2.3,12.6-3.8l1.5,2.7c-3.5,1.5-8.1,2.7-12.2,3.5l-2.5,9.2h11.9L370.4,133.6z"/>
		<path fill="#ffffff" d="M385.4,149.8l-0.6,2.9c-4.9,1.4-10.1,2.9-13.8,3.9l0.2-3.3c1.7-0.3,4-0.9,6.4-1.6l3.7-14h-5.6l0.8-3.1h5.6
			l1.4-5.2H380l0.6-2.1c-0.8,0.7-1.6,1.5-2.4,2.1c0-0.8,0-2.8-0.2-3.6c3.6-2.9,7.7-7.3,10.7-12l1.7,1.3c-0.4,0.6-0.8,1.3-1.3,2
			c1.7,2,3.4,4.4,4.3,6.3l-2,3c-0.9-2-2.6-4.5-4.2-6.6c-1.8,2.4-3.8,4.6-5.7,6.6h8.9l-0.8,3.1h-3.9l-1.4,5.2h5.1l-0.8,3.1h-5.1
			l-3.6,13.4L385.4,149.8z M377.6,140.3c-0.1,2.8-0.4,6.5-0.9,8.9l-2.1,0.7c0.5-2.4,0.9-6.1,1.1-9L377.6,140.3z M381.7,148.6
			c1.2-2.4,3-6.3,4-8.9l1.8,0.9c-1.5,3-3.1,6.5-4.4,8.7L381.7,148.6z M404.5,145.7c-2,2.4-4.3,4.5-6.8,6.2c0.9,2.1,2.2,3.3,3.7,3.3
			c0.9,0,1.6-1.4,2.8-5.1c0.4,0.6,1,1.1,1.6,1.4c-1.8,5.2-3.1,6.7-5.4,6.7s-4.2-1.7-5.3-4.6c-3.2,1.9-6.6,3.4-9.8,4.7
			c-0.1-0.7-0.6-2-0.9-2.7c3.3-1.1,6.8-2.5,9.9-4.4c-0.4-1.8-0.6-3.9-0.6-6.3l-5.5,0.6l0.6-3l5-0.6c0.1-2.2,0.5-4.7,1-7.2h2.5
			c-0.5,2.5-0.9,4.7-1,6.9l11.7-1.3l-0.6,2.9l-11.2,1.3c0,1.8,0.2,3.5,0.5,4.8c2.1-1.4,3.9-3.1,5.4-4.9L404.5,145.7z M394.9,121.5
			l5.2-0.5c0.2-2.1,0.5-4.4,1-6.9h2.5c-0.5,2.4-0.9,4.6-0.9,6.6l10.7-1.1l-0.5,2.9l-10.2,1.1c0.1,1.5,0.2,2.9,0.5,4.1
			c1.8-1.2,3.5-2.6,4.8-4.1l2,1c-1.7,2-3.9,3.7-6.1,5.2c0.8,1.7,2,2.7,3.3,2.7c0.9,0,1.5-1.2,2.5-4.3c0.4,0.6,1,1.1,1.6,1.3
			c-1.7,4.7-2.9,6.1-5,6.1c-2.2,0-3.9-1.5-5-4.2c-3,1.7-6.3,3.1-9.4,4.2c-0.2-0.7-0.6-2-0.9-2.6c3.2-0.9,6.6-2.1,9.6-3.8
			c-0.3-1.5-0.5-3.3-0.6-5.3l-5.7,0.6L394.9,121.5z M401.5,135.3c1.7,0.8,3.8,1.9,4.8,3l-1.9,2.3c-1-1-3.1-2.4-4.7-3.2L401.5,135.3z
			 M409.6,119.5c-0.8-1.1-2.5-2.5-3.9-3.4l1.8-2c1.4,0.9,3.2,2.1,4.1,3.2L409.6,119.5z"/>
		<path fill="#ffffff" d="M423.5,150.2c-3.3,2.8-7.9,5.5-11.6,7.2c-0.2-0.7-0.9-2-1.3-2.6c3.6-1.4,7.9-3.6,10.7-5.9L423.5,150.2z
			 M449.7,132.3l-0.8,3h-32.7l0.8-3h15.1c-0.1-0.8-0.3-1.5-0.5-2.2l2.3-0.9h-11.8l3.6-13.4H450l-3.5,13.4h-12.1
			c0.3,0.9,0.6,2.1,0.7,3.1L449.7,132.3L449.7,132.3z M430.8,147.6l-1.9,7.1c-0.5,1.8-1,2.6-2.2,3c-1.2,0.5-2.9,0.5-5.5,0.5
			c0.1-0.9,0.1-2,0-2.9c1.9,0.1,3.7,0.1,4.2,0.1s0.7-0.2,0.8-0.8l1.9-7h-10l2.6-9.9h22.8l-2.6,9.9L430.8,147.6L430.8,147.6z
			 M426.8,121.2h19l0.8-3h-19L426.8,121.2z M425.4,126.7h19l0.8-3.1h-19L425.4,126.7z M421.4,145h17.4l1.2-4.6h-17.4L421.4,145z
			 M435.3,149.1c2.9,1.6,6.5,4.2,8.3,6.1l-2.5,2.4c-1.6-1.9-5.1-4.7-8.1-6.4L435.3,149.1z"/>
	</g>
	<g>
		<path fill="#ffffff" d="M348.3,63.3l-0.5-0.3c-6.2-3.9-11.6-11.7-13.6-19.5l-0.1-0.3h-14.3l-1.3,5h7.5c-6,6.1-14,12.3-20.1,15.5
			l-0.4,0.2l0.2,0.4c0.5,0.8,1,2.2,1.1,3.3l0.1,0.7l0.6-0.4c2-1.2,4.1-2.6,6.3-4.2l-1,4h10.6l-2.1,8h-12.6l-1.2,4.8h12.6l-2.3,8.8
			h-17l-1.3,4.9h38.9l1.3-4.9h-17.5l2.3-8.8h12.7l1.2-4.8h-12.7l2.1-8h11l1-4c1.4,1.5,2.8,2.8,4.3,3.8l0.4,0.3l0.3-0.4
			c0.7-1,2.2-2.8,3.2-3.7L348.3,63.3z M314.9,62.9c5.6-4.2,11.4-9.4,15.8-14.3c1.9,5.3,4.9,10.4,8.4,14.3H314.9z"/>
		<path fill="#ffffff" d="M380.2,52.4c1.7-3.1,3.2-6.3,4.6-9.3l0.2-0.5l-4-1.1l-0.2,0.4c-4.7,10.7-10.2,19.7-15.4,25.3l-0.3,0.3
			l0.4,0.3c0.6,0.5,1.6,1.8,2.1,2.4l0.4,0.5l0.4-0.4c1.5-1.7,3.1-3.7,4.7-6.1c-0.2,6.4,0.2,11.7,1.1,16.1c-4.6,4.8-10,8.3-16.4,10.7
			l-0.4,0.2l0.1,0.4c0.3,1,0.7,2.9,0.8,3.9v0.7l0.6-0.3c6.5-2.7,11.9-6.3,16.6-11c1.8,4.8,4.5,8.4,8.4,10.9l0.4,0.2l0.3-0.4
			c0.8-1.1,2.2-2.8,3.2-3.7l0.5-0.4l-0.6-0.3c-3.8-2.1-6.6-5.6-8.3-10.5c4.8-5.9,8.9-13.2,13-23.1h3.8l1.3-5.1L380.2,52.4
			L380.2,52.4z M388,57.5c-3,7.4-6.2,13.4-9.9,18.2c-0.9-5-1.1-11.1-0.5-18.2C377.6,57.5,388,57.5,388,57.5z"/>
		<path fill="#ffffff" d="M367.8,78.8l0.9-4.9l-8.1,2.5l5.8-22.4h6.9l1.3-5.1h-17.7l-1.3,5.1h6.5L356,77.8c-3.4,1.1-5.7,1.7-7.5,2.3
			l-0.3,0.1l-0.4,5.4l0.6-0.2c3.7-1.2,8.4-2.8,13.4-4.5L367.8,78.8z"/>
		<path fill="#ffffff" d="M446.2,49.6l0.2-0.3l-1.9-2l-0.9,0.2h-10c1-1.5,1.9-3,2.7-4.5l0.3-0.4l-3.4-1.5l-0.2,0.4
			c-3.6,6.4-8.3,12.5-12.7,16.5l3-11.9h-15.4l-11.1,43.1l-0.1,0.6h3.6l1.1-4.3h11.8l3.4-13.4c0.1,0.9,0.2,1.9,0.2,2.5v0.7l0.6-0.3
			c0.8-0.3,1.7-0.7,2.5-1.1l-5.5,21.3h3.9l0.7-2.9h10.7l-0.7,2.8h4l5.4-21c0.4,0.3,0.8,0.5,1.3,0.7l0.5,0.3l0.2-0.5
			c0.4-1.1,1.3-2.9,2-4l0.3-0.5l-0.5-0.2c-3-1.3-5.6-3.3-7.6-6C439.3,59.7,443.2,54.8,446.2,49.6z M433.5,77.9l-2.5,9.7h-10.7
			l2.5-9.7H433.5z M432.6,60.7c-1.3-2.6-2.1-5.4-2.3-8.2h9.7C437.9,55.4,435.4,58.1,432.6,60.7z M421.6,73.1
			c3.2-1.7,6.4-3.7,9.3-5.9c1.6,2.3,3.5,4.3,5.8,5.9H421.6z M420.9,61.9l0.2,0.8l0.6-0.5c1.8-1.6,3.5-3.6,5.1-5.4
			c0.4,2.4,1.2,4.7,2.2,6.7c-3.7,2.8-7.7,5-11.9,6.5l2.8-11C420.3,59.8,420.8,61.3,420.9,61.9z M418.5,50.9l-3.1,12.2h-2.5l3.1-12.2
			H418.5z M414.3,67.4l-3.4,13.4h-2.5l3.5-13.4H414.3z M407.1,63.1l3.1-12.2h2.6l-3.1,12.2H407.1z M408.6,67.4l-3.5,13.4h-2.6
			l3.5-13.4H408.6z"/>
	</g>
	<g>
		<polygon fill="#ffffff" points="250.4,74.2 271.5,74.2 272.3,71.2 251.2,71.2" />
		<polygon fill="#ffffff" points="248.6,81 269.7,81 270.5,77.9 249.5,77.9" />
		<path fill="#ffffff" d="M217.9,80.5c3.5-2.9,6.4-6.2,8.8-9.8h-12.2C214.9,74.2,216.1,77.5,217.9,80.5z" />
		<polygon fill="#ffffff" points="252.2,67.6 273.2,67.6 274,64.6 252.9,64.6" />
		<path fill="#ffffff" d="M295,34.8H171.3l23,7.4l-15.6,59.4h101.2c2.1,0,3.9-1.4,4.5-3.4l15.2-57.6C300.2,37.6,298,34.8,295,34.8z
			 M249.5,44.1H261l-1.1,4.2h-11.5L249.5,44.1z M233.1,67.5c-3.3,6.4-7.6,11.8-12.6,16.2c2.5,2.5,5.7,4.3,9.6,5.4l0.8,0.2l-0.6,0.6
			c-0.9,0.9-2.3,2.6-3,3.8L227,94l-0.3-0.1c-4.3-1.5-7.8-3.8-10.4-7c-4.3,3-9.2,5.4-14.6,7l-0.6,0.2v-0.6c0-1.1-0.2-2.8-0.6-3.7
			l-0.2-0.5l0.5-0.1c4.6-1.2,9-3.2,13-5.8c-1.9-3.6-3.1-7.8-3.5-12.7H209v-0.1l-4.7,1.7l-4.2,15.9c-0.7,2.5-1.5,3.8-3,4.5
			c-1.3,0.7-3.2,0.8-6.4,0.8h-0.5l0.1-0.5c0.2-1,0.1-2.7,0-3.9v-0.5h0.5c1.7,0.1,3.2,0.1,4.1,0.1h0.4c0.3,0,0.5,0,0.7-0.7l3.7-13.9
			l-5.9,2.1l0.2-5.1l0.3-0.1c1.7-0.5,4-1.2,6.9-2.2l3.1-11.5h-6l1.3-4.9h6l3-11.4h4.2l-3,11.4h5.4l-1.3,4.9h-5.5l-2.6,10l4.4-1.5
			l-0.3,2.1l0.5-1.8h20l0.8-0.2l2.3,1.6L233.1,67.5z M230.4,62.7c-1.3,0-2.2-0.3-2.7-1c-0.8-1.1-0.6-3,0.1-5.5l2.3-8.6h-6.7
			l-0.5,2.1c-1.8,7-5.5,12.2-10.8,15.5l-0.6,0.4l-0.1-0.7c-0.2-0.8-0.8-2.3-1.2-3l-0.2-0.4l0.4-0.2c5.8-3.5,7.7-8.2,8.7-11.9
			l1.8-6.6h14.8l-3.6,13.8c-0.2,0.9-0.3,1.4-0.3,1.6c0,0,0,0,0.1,0h3.4c0.7,0,1.6-0.1,2.2-0.3l0.7-0.2l-0.2,0.7
			c-0.2,0.7-0.6,2.5-0.7,3.6v0.3l-0.3,0.1c-0.6,0.2-1.4,0.3-2.6,0.3C234.4,62.7,230.4,62.7,230.4,62.7z M287.1,46.1
			c-1.1,1.7-3.8,5.8-5.9,8.3l-0.2,0.3l-3.1-1.6l0.4-0.4c0.9-1.2,1.9-2.5,2.8-3.8h-5.8l-0.1,0.4c-0.1,0.5-0.3,1.1-0.6,1.8
			c1.4,3.1,5.3,5.2,10.8,5.8l1,0.1l-0.7,0.7c-0.8,0.8-2,2.3-2.7,3.3l-0.2,0.3l-0.3-0.1c-4.7-0.9-8.3-3.1-10.2-6.3
			c-2.4,2.8-6.3,4.8-11.9,6.1h18.9L273,84.7h-7.2c3.9,1.8,7.9,4,10.2,5.7l0.5,0.4l-4.3,3l-0.3-0.2c-2.3-1.8-6.5-4.3-10.6-6.3
			l-0.7-0.3l2.8-2.3h-11.2l2.4,1.7l-0.6,0.4c-4.7,3-11.2,5.7-15.4,7l-0.4,0.1l-0.2-0.4c-0.6-1.5-1.1-2.6-1.5-3.1l-0.4-0.6l0.7-0.2
			c4-1,9.5-2.8,13.4-5h-6.8l6.3-23.9h7.5c-0.1-0.8-0.5-2.2-0.9-2.9l-0.3-0.6l0.7-0.1H245l1.1-4.3h13.5l-1.1,4
			c9.7-1.9,11.8-5.2,12.6-8.2h-3.7c-1.5,2.2-3.2,4.1-4.7,5.6l-0.4,0.4l-0.3-0.5c-0.3-0.6-1.2-1.6-1.8-2l-0.4-0.3l0.4-0.4
			c2.9-2.6,5.7-6.5,7.8-10.7l0.2-0.4l3.6,1.1l-0.2,0.5c-0.4,0.8-0.8,1.5-1.2,2.3c0,0.1-0.1,0.1-0.1,0.2h13.9l0.7-0.2l2.6,1.3
			L287.1,46.1z" />
	</g>
</g>
</svg>
