<?xml version="1.0" encoding="utf-8"?>
<svg version="1.1" xmlns="http://www.w3.org/2000/svg" xmlns:xlink="http://www.w3.org/1999/xlink" x="0px" y="0px"
	 viewBox="0 0 450 200" style="enable-background:new 0 0 450 200;" xml:space="preserve">
<g>
	<g>
		<path fill="#ffffff" d="M171,65.5l3.6-11.9l8.1,1.1l-2.9,9.5l2.3-1.7l3.9,4.8l-3.3,2.4h-4.6l-2.5,8.1c1.8-0.7,3.5-1.4,4.9-2.1
			l0.6,3.7c-0.3,0.3-0.6,0.5-1,0.7h20.4l4.6-2.8l5.8,5.9l-3.4,2.2c-2.8,3.8-6.3,7.1-10.4,10.1c3.6,1.9,7.1,3.4,10.5,4.6l-8.9,7.7
			c-4.1-2.1-7.6-4.4-10.4-7.1c-5.1,2.6-11,4.7-17.6,6.5l-1.6-3c5.9-2.5,11.1-5.1,15.3-7.7c-2.7-3.6-4-7.7-3.7-12.1h-2.5l0.1-3.1
			c-1.5,1-3.1,2-4.8,3l-4.7,15.4c-1.5,5-4.5,7.5-8.9,7.5h-3.8c1-3.2,0.1-4.9-2.7-5l1.6-4.3c1.6,0.3,3.1,0.5,4.4,0.5
			c1,0,1.6-0.5,2-1.6l2.3-7.4c-1.7,0.8-3.5,1.5-5.3,2.4l-0.1-8.5c2.2-0.6,4.9-1.3,8-2.3l3.4-11.3h-5.5l0.2-4.1H171z M191.4,53.5
			l8.8,1.2l-0.5,1.5h3.5l4.6-3l6.8,5.2l-3.6,2.7l-2.2,7.2c-0.2,0.8-0.2,1.2,0.2,1.2h0.3c0.5,0,0.9-0.2,1.2-0.7l2.9-4.8l3.1,0.6
			c-0.6,1.1-1,2.1-1.3,2.9c-0.6,2.1-0.2,3.7,1.3,4.9c-1.8,2.9-4.2,4.3-7.2,4.3h-6.5c-3.8,0-5.2-1.8-4.1-5.3l3.3-10.8h-3.8l-0.2,0.7
			c-2.7,9-8.1,15.2-16,18.4l-0.8-3.8c3.1-3.2,5.6-7.7,7.4-13.7L191.4,53.5z M191.4,91.8c3.1-2.4,5.6-4.9,7.4-7.4h-13.6
			C186.4,87,188.4,89.4,191.4,91.8z"/>
		<path fill="#ffffff" d="M237.1,63.8l1.8,3.2c-4.8,3.2-10.8,5.8-18,8l-0.2-7.2C227.6,66.8,233.1,65.5,237.1,63.8z M233.7,57.2l3.5-2.6
			l3.5,4.3l-3,2.3H224l0.2-4H233.7z M225.3,73.8l8.4,1.1l-0.4,1.2h23.2l2.8-1.7c-0.3-0.1-0.6-0.3-0.8-0.5c-1.2-0.9-2.3-1.8-3.3-2.8
			c-0.8,0.6-1.5,1-2.3,1.4c-4.6,1.9-10.7,2.9-18.4,3l0.1-3.8c6.7-0.3,11.3-1.4,13.5-3.3c1.5-0.9,2.7-2.9,3.7-6.2l9.1,1.1
			c-0.6,1.5-1.3,2.7-2,3.8c1.4,0.6,3,1.1,4.8,1.5c2.2,0.6,5.6,1.1,10,1.5l-4.7,7.3c-1.6-0.2-3.1-0.5-4.5-0.9l2.4,2.4l-3,2.4l-5,16.7
			l-5.9,0.7c4.4,0.8,8.4,1.7,11.9,2.7l-8.8,6.3c-4.1-2.5-9.4-4.8-15.8-6.7l3.6-3.8c2.1,0.3,4.2,0.6,6.2,0.9l0.3-1.1h-18.6l4.3,4.5
			c-6.6,2.4-14.5,4.4-23.8,6l-1.7-4.1c5.6-1,12.3-3.1,20-6.4H227l-0.5,1.6l-9.1,1.1L225.3,73.8z M255,82l0.7-2.3h-23.5l-0.7,2.3H255
			z M253.3,87.7l0.6-2.1h-23.5l-0.6,2.1H253.3z M228.2,93.4h23.5l0.7-2.2h-23.5L228.2,93.4z M266.9,57.5l4.6-3.3l6,5.2l-4,1.7
			l-7.5,5l-3-1.5l2.5-2.8h-16.6c-2.4,2-5,3.8-8,5.5l-2.5-2.6c3.9-3.5,6.8-7.3,8.7-11.5l8.2,1.5c-0.7,1-1.4,2-2.2,2.9H266.9z"/>
		<path fill="#ffffff" d="M284.3,76.8c-2,0.6-4,1.2-6.1,1.7l-1.8-3.4c12.1-4.1,21.6-8.7,28.4-14h-15.5l0.4-4.4h17.7l4.6-3.6l5.6,5.5
			l-5,3.2c0.7,2.4,3.6,4.6,8.7,6.5c2.9,1.1,6.5,2,10.8,2.8l-8.1,9.1c-1.6-0.7-3-1.3-4.4-2l-3.1,2.3h-10.4L304,88h9.2l3.8-2.9
			l3.8,4.8l-3.2,2.4h-14.9l-2.7,8.9h12.7l4.1-3.3l4.2,5.1l-3.4,2.5H270l0.1-4.3h20.2l2.7-8.9h-15.3l0.2-4.3h16.4l2.2-7.3h-12.3
			L284.3,76.8z M312,76.4l1.8-1.3c-2.5-1.7-4.4-3.4-5.6-5.1c-0.5-0.8-0.8-1.6-1.1-2.4c-5.2,3.2-12.4,6.2-21.5,8.8H312z"/>
		<path fill="#ffffff" d="M355.7,60.4l4.3-3.2l4,4.8l-3,2.4h-7l-7.3,24.4c2.9-0.7,6-1.6,9.2-2.6l0.5,4.2c-8.8,4.5-17.6,8.1-26.5,10.9
			l-0.6-9.4c2.4-0.2,5-0.5,7.7-1l7.9-26.5h-6.2l0.2-4H355.7z M383,64l4.1-3l4.1,4.8l-3.3,2.5h-2.4c-2.9,8.5-7.4,15.8-13.7,21.8
			c3.1,3.7,6.3,6.7,9.6,9l-9.5,8.2c-3.3-3.2-5.9-6.8-7.9-10.9c-6.7,4.5-14.7,8.1-24,10.8l-1.2-3.9c9.1-3.8,16.6-8.3,22.6-13.5
			c-1-3.2-1.4-6.6-1.4-10.1c-1.8,1.9-3.7,3.7-5.7,5.5l-2.7-2.9c7-8.6,12.5-18.1,16.5-28.3l8.8,1.6c-1.5,2.9-3.1,5.7-4.8,8.4H383z
			 M365.2,74c0.3,3.3,1.2,6.5,2.7,9.5c4.1-4.7,7.1-9.8,9.1-15.3h-7.4C368.1,70.2,366.6,72.2,365.2,74z"/>
		<path fill="#ffffff" d="M426.6,53.3l8,1.7c-0.9,1.6-1.8,3.1-2.7,4.5h7.5l4-3.7l6.7,5.7l-3.4,2c-3.4,4.5-7.1,8.4-11,11.6
			c2.5,1.6,5.7,2.7,9.6,3.4l-6.9,8.4c-3.7-1.7-6.7-4.1-9.2-7.1c-4.9,3-10.1,5.2-15.7,6.7l-0.4-2.9l-5.3,17.8l-6.8,0.8l0.9-2.9h-9.1
			l-0.9,2.9l-6.8,0.8l14-47.4l6.3,0.7l-0.4,1.2h8.1l4.1-2.8l4.9,4.9l-2.7,2L415.8,74C419.2,68.3,422.8,61.5,426.6,53.3z M399.7,75.8
			h1.7l4.1-14h-1.7L399.7,75.8z M394,95.1h1.7l4.4-15h-1.7L394,95.1z M411.1,61.8l-4.1,14h1.8l4.1-14H411.1z M405.7,80.1l-4.4,15
			h1.8l4.4-15H405.7z M415.2,75.9l-2.1,7.2c4.8-2.4,9.1-4.9,12.7-7.7c-0.8-1.4-1.6-2.9-2.2-4.4c-2.2,2.7-4.5,5.1-6.8,7.2L415.2,75.9
			z M418,104l-0.7,2.4l-8.9,1.1l6.2-21.1l8.3,1l-0.5,1.6h7.4l5-3.5l5.7,5.7l-3.1,2.4l-3.7,12.6l-8.9,1l0.9-3.2H418z M426.9,66.9
			c1.1,1.7,2.4,3.2,3.8,4.5c2.5-2.4,4.7-4.9,6.5-7.6h-8C428.4,64.9,427.6,65.9,426.9,66.9z M427,99.8l1.9-6.6h-7.8l-1.9,6.6H427z"/>
	</g>
	<g>
		<path fill="#ffffff" d="M168.6,118.5l2.4-1.7l2.1,2.4h9.6l2.8-1.4l3.5,3.9l-2.4,1.1c-1.5,2-3.1,3.8-4.7,5.4c1.5,1.1,2.8,2.3,4.1,3.5
			l-5.4,4.3c-1-1.5-2.1-2.9-3.2-4.2c-3,2-6.2,3.4-9.5,4.1l-0.3-2.2c2.7-1.4,5.1-3,7.2-4.7c-1.3-1.3-2.7-2.5-4.1-3.5l3-2.4
			c1.6,0.8,3.2,1.6,4.6,2.5c1-1.1,2-2.3,2.8-3.5h-8.7l-0.1-1.4l-0.9,0.6h-1l-4.1,14.7l-6.2,0.6l0.6-2c-4,1.3-8.5,2.3-13.5,3.1
			l-0.1-5.4c0.9-0.1,1.8-0.1,2.6-0.1l3-10.8h-1.8l0-3.1H168.6z M176.1,135l3,4.5c-3.6,0.6-7.8,1.1-12.7,1.5l-3.3,11.8
			c3.6-3.5,6.5-7.4,8.6-11.8l6,1.5c-0.5,1-1.1,2-1.8,2.9c1.3,1.2,3,2.9,4.9,5.2l-6.4,4.1c-0.5-2.2-1-4.1-1.7-5.7
			c-2.1,2-4.6,3.9-7.5,5.9l-1.9-2.1l-0.4,1.6l-6.3,0.6l1-3.7l-4.7,2.9c-0.3-1.7-0.7-3.2-1.2-4.5c-2,1.7-4.4,3.4-7.3,5.1l-1.9-2.1
			c3.7-3.1,6.6-6.7,8.6-10.7l5.8,1.4c-0.5,1-1.2,2-2,2.9c0.9,0.8,1.9,1.8,3,3.1l2.3-8.2c-3.3,0.1-6.7,0.2-10.4,0.2l0.1-3.2
			C160.3,137.9,169.1,136.8,176.1,135z M158.2,123.2h5.7l0.4-1.6h-5.7L158.2,123.2z M157.1,127.4h5.7l0.5-1.6h-5.7L157.1,127.4z
			 M155.8,131.9c2.2-0.2,4.1-0.3,5.8-0.5l0.4-1.4h-5.7L155.8,131.9z"/>
		<path fill="#ffffff" d="M199.5,116.6l6.3,1.6c-0.5,1.1-1.1,2.2-1.9,3.2h6.9l2.1-4.4l6.7,1.1l-3.1,3.3h6.5l3-2.1l2.9,3.5l-2.3,1.7
			h-10.8l-0.9,3.3h5.8l2.9-2.2l3,3.5l-2.3,1.8H214l-0.9,3.3h5.8l2.9-2.2l3,3.5l-2.3,1.8h-10.2l-0.9,3.2h7l2.9-2.1l3,3.5l-2.3,1.7
			h-25.5l-0.3,0.9l-4.6,0.5l2.2,0.9c-2.2,4.4-4.7,7.7-7.4,10l-3.9-4.3c2.9-1.8,5.3-4,7.4-6.5l-0.5,0l3.4-12.1
			c-1.2,0.9-2.4,1.8-3.7,2.7l-2-2.4C192.4,128.3,196.5,122.8,199.5,116.6z M199.5,144.5c1.3,3.3,1.9,6.3,1.9,8.7l-7,2.3
			c0.8-2.9,1.2-6.2,1.2-10.2L199.5,144.5z M208.2,127.7l0.9-3.3h-7.3l-0.9,3.3H208.2z M200,130.7l-0.9,3.3h7.3l0.9-3.3H200z
			 M198.2,137.1l-0.9,3.2h7.3l0.9-3.2H198.2z M207.3,144.4c1.1,1.5,2.1,3.1,2.9,4.7c0.7,1.4,1.1,2.5,1.2,3.1l-6.8,3.7
			c0.3-3.3,0-6.6-0.7-9.9L207.3,144.4z M216.4,143.6c1.2,1,2.8,3.6,4.9,7.8l-7.2,4.5c-0.1-4.2-0.5-7.5-1.2-10.1L216.4,143.6z"/>
		<path fill="#ffffff" d="M252.9,116.9l6.6,0.9l-0.9,3.2h6.4l2.9-2.2l2.9,3.4l-2.3,1.6H243l-3.9,13.9c-1.1,4.1-2.8,7.5-4.9,10.2
			c-1.9,2.7-4.4,5.1-7.4,7.3l-1.6-1.4c3.3-4.1,5.8-8.6,7.5-13.4c-1.4,1.6-2.8,3.2-4.3,4.8l-1.7-5.5c3.2-2.1,5.9-4.3,8.1-6.5l1.1-3.9
			l-4.5,2.9c0.3-3.5,0.4-6.3,0.2-8.5l2.9-1.8c0.6,0.6,1.4,2.1,2.3,4.3l2-7.3l5.3,0.8l-0.4,1.4h8L252.9,116.9z M256.2,137.6l3-1.7
			l5,4.4l-2.8,0.9c-2.5,2.6-5,4.8-7.6,6.5c1.3,0.8,4.1,1.2,8.5,1.2l-4.1,6.1c-4.5-0.4-8.1-1.7-10.7-3.8c-4.6,2-9.8,3.2-15.5,3.7
			L232,152c5.1-1.1,9.2-2.4,12.4-3.9c0.1-0.1,0.2-0.1,0.2-0.1c-1.5-2.1-2.4-4.6-2.6-7.3h-2.4l0.2-3.1H256.2z M245.9,124.8l5.8,0.8
			l-0.3,0.9h4.2l3.2-2.4l3.5,3.9l-2,1.6l-0.2,0.9c-0.2,0.7,0.2,1.1,1.3,1.1s1.8-0.3,2.1-0.9l1.8-3.8l2,0.5c-0.3,0.7-0.5,1.3-0.7,1.8
			c-0.4,1.6-0.3,2.8,0.4,3.6c-1,2.1-2.4,3.1-4.2,3.1h-5.5c-2.7,0-3.7-1.2-3-3.7l0.8-2.7h-4.3l-0.2,0.7c-0.8,2.7-3.5,5.1-7.9,7.3
			l-2.5-1.8c2.3-1.4,3.8-3.3,4.5-5.8L245.9,124.8z M246.6,140.6c0.6,1.2,1.5,2.5,2.6,3.8c0.2,0.2,0.4,0.3,0.5,0.5
			c1.9-1.4,3.5-2.8,4.7-4.3H246.6z"/>
		<path fill="#ffffff" d="M281.7,117l4.7,2.2c-3.7,4.4-8.1,8-13,10.8l-2-2.4C275,124.7,278.4,121.2,281.7,117z M272.9,139.3
			c-0.8,0.5-1.5,1-2.3,1.4l-2-2.6c4.5-3.7,8.9-8.1,13.1-13.4l5,2.4c-1.9,2.2-3.9,4.3-6,6.2l-6,21.4l-6.3,0.7L272.9,139.3z
			 M295.6,117l5.2,2.1c-2.1,1.8-4.4,3.5-7,5.1c0.6,0.5,1.2,1.1,1.6,1.7c2.8-2.1,5.5-4.5,8.2-6.9l5.6,2.2
			c-4.9,3.9-10.3,7.4-16.2,10.8c3.3-0.1,6.1-0.3,8.3-0.6c-0.4-1-0.8-1.9-1.2-2.8l3.3-1.9c1.8,1.7,3.6,4,5.4,6.9l-5.8,3.5
			c-0.2-1-0.5-2-0.8-2.9c-1.7,0.4-3.7,0.8-6.1,1.3c-0.4,0.1-0.7,0.1-1,0.2c-0.7,0.8-1.5,1.6-2.2,2.2h5.7l3.1-1.5l4.3,4l-3.3,1.9
			c-2.1,1.9-4.3,3.6-6.7,5.1c2.3,1.3,5,2.3,8.1,3.3l-4.9,5.1c-3-1.7-5.7-3.5-7.9-5.6c-4.4,2.3-9.3,4.1-14.5,5.5l-0.8-3
			c4.5-1.8,8.5-3.7,11.9-5.8c-0.9-0.9-1.7-1.9-2.4-2.9c-2,1.3-4.1,2.4-6.2,3.3l-1.1-2.6c3.5-2.2,6.7-4.9,9.4-7.9
			c-1.8,0.2-3.7,0.5-5.7,0.7l0.7-5.1c1.4,0,2.7,0,3.9,0c1.5-0.9,2.9-1.8,4.4-2.8c-0.9-2-2.1-3.8-3.6-5.6l2.2-2.6
			c0.8,0.4,1.6,0.8,2.3,1.2C292.8,120.8,294.1,119.1,295.6,117z M288.2,141.8c1,0.9,2,1.8,3.1,2.6c1.7-1.2,3.1-2.3,4.5-3.6h-6.3
			C289,141.1,288.6,141.5,288.2,141.8z"/>
		<path fill="#ffffff" d="M322.5,116.9l6.3,0.8l-1,3.4h1.5l2.9-2.2l3,3.5l-2.4,1.7h-4.4l4.1,0.9c-2.1,2.5-4.5,4.6-7,6.3h2l2.8-2.1
			l2.5,3.1l4.1-14.4l5.6,0.9l-0.6,2.1c3.1-0.9,5.9-2.2,8.2-3.9l3.6,3.6c-3.5,1.8-7.7,2.9-12.6,3.5l-1.5,5.3h6.5l2.5-1.6l2.5,2.9
			l-2.1,1.7h-2.2l-6.4,22.6l-5.7,0.5l6.5-23.2h-2.5l-1.4,5.1c-1.2,4.1-2.7,7.6-4.7,10.3c-1.8,2.7-4,5.2-6.7,7.5l-2.1-1.8
			c3.5-4.9,6-10.4,7.7-16.3l1.2-4.3l-1.8,1.4h-7.2l-0.9,3.1h2l2.9-2.2l3,3.5l-2.4,1.7H322c0.9,0.4,1.6,0.7,2.2,1
			c1.5,1,2.9,2.1,4.3,3.2l-5.1,5.4c-0.8-1.9-1.7-3.5-2.6-5l-2.8,10l-6.1,0.6l1.9-6.9c-2,1.7-4.1,3.2-6.3,4.6l-1.3-2.5
			c3.5-3.2,6.5-6.6,9.2-10.3h-5.1l0.1-2.9h6.7l0.9-3.1h-6.5l0.1-3.1h5.3c-0.5-2.2-1.1-4.1-1.9-5.5l2.2-1.6h-2.6l0.1-3h6.7
			L322.5,116.9z M318.1,131.2h3.4c1.9-2,3.8-4.4,5.5-7.1h-9c1.7,1.4,2.9,2.8,3.8,4.2L318.1,131.2z"/>
		<path fill="#ffffff" d="M387.8,121.8l2.4-1.9l2.7,3l-2,1.7l-2.8,0.2l2,2.2c-2.1,1.3-4,2.4-5.8,3.2c0.7,0.6,1.3,1,2,1
			c0.6,0,1.6-1,2.9-3.1l1.7,0.3c-0.4,0.8-0.6,1.5-0.7,1.9c-0.3,1.2-0.3,2.2,0,3.2c-1.3,1.8-2.8,2.6-4.7,2.6c-2.7,0-4.9-1.3-6.7-3.8
			c-3.3,0.9-6.7,1.5-10.4,1.8l-0.3-2.6c3.2-0.6,6.2-1.3,9-2.3c-0.4-1-0.7-2.1-0.9-3.2l-4.9,0.4l0-1l-3.4,2.7
			c-0.7-2.2-1.5-4.1-2.5-5.7c-2,2.3-3.9,4.1-5.9,5.6h4.8l2.1-1.4l2.3,2.7l-1.9,1.7h-3.1l-0.9,3.1h1l2.3-1.5l2.3,2.7l-2.2,1.6H362
			l-1.8,6.4c1.3-1.9,2.4-3.9,3.4-6.1l3.7,1.7c-0.4,0.6-0.9,1.2-1.3,1.7l4.3-0.6c0-1.8,0.2-3.6,0.5-5.5l5.3,0.4
			c-0.2,1.6-0.2,3.1-0.1,4.5l2.5-0.3c-0.4-1.2-1-2.4-1.8-3.5l2.6-1.4c1.5,0.9,2.6,1.9,3.3,2.9l-3,1.8l4-0.5l2.4-1.9l2.8,3.1
			l-2.1,1.7l-3.7,0.4l2.3,2.8c-2,1.6-4.1,2.9-6.3,4.1c0.6,0.6,1.3,1.1,2.1,1.4c0.4,0,1.2-1.3,2.4-3.9l2,0.8c-0.5,1.1-0.8,1.9-1,2.5
			c-0.3,0.9-0.1,1.8,0.5,2.7c-1.2,2.2-3,3.3-5.2,3.3c-1.4,0-2.9-0.6-4.5-1.9c-0.8-0.6-1.5-1.4-2.1-2.2c-3.3,1.3-6.8,2.3-10.5,2.9
			l0-2.7c3.1-1,6-2.2,8.7-3.5c-0.5-1.6-0.9-3.2-1-5l-4.8,0.5l0-2.6c-1.4,1.8-2.9,3.4-4.4,4.9l-1.6-0.9l-0.4,1.6
			c2.2-0.4,4.2-0.9,5.8-1.5l0,3.1c-4.8,2.2-10.2,4-16.4,5.3l0-5.4c2-0.2,3.8-0.4,5.4-0.6l0.5-1.8l-4.1,1.3c0.6-2.3,1.1-5,1.4-8.1
			l2.7-0.7c0.4,2.1,0.6,3.9,0.6,5.5l1.9-6.9h-4l0.1-2.9h4.7l0.8-3h-2.2l0-1.1c-0.7,0.4-1.3,0.7-2,1l-0.7-2.3
			c3.2-2.9,6.3-6.8,9.4-11.7l5.2,1.2c-0.4,0.5-0.7,1-1.1,1.4c1.9,1.3,3.5,2.5,4.7,3.7l3.6-0.4c-0.2-1.7-0.2-3.6,0-5.7l5.5,0.5
			c-0.2,1.8-0.1,3.3,0,4.7l2.8-0.3c-0.5-1.1-1.2-2-1.9-2.9l2.1-2c1.8,0.9,3.2,1.8,4.2,3l-2,1.7L387.8,121.8z M376.9,145.1
			c1.5-1,2.9-2,4.2-3.1l-4.9,0.6c0.2,0.8,0.3,1.5,0.5,2.2C376.8,144.9,376.8,145,376.9,145.1z M382.2,127.1c1.3-0.7,2.6-1.4,3.8-2.1
			l-4.3,0.4C381.9,126,382,126.6,382.2,127.1z"/>
		<path fill="#ffffff" d="M402.8,117.2l6.3,0.7l-0.1,0.5h15.9l3-1.6l3.9,3.9l-1.8,1.6l-2.3,8.2l-6.8,0.8l0.3-1.1h-3.9l-0.6,2.3h9.2
			l3-2.3l2.9,3.5l-2.2,1.7h-5.7l3.1,3.1l-1.7,1.6l-1.4,4.8l-5.1,0.6c2.5,1,5.2,2.5,8,4.7l-6.1,4.7c-1.1-2.4-3.2-5-6.3-7.8l2.9-2
			c0.2,0.1,0.3,0.1,0.5,0.2l0.2-0.8h-4.6l-1.8,6.4c-0.9,3.1-2.7,4.7-5.5,4.7h-3.9c0.6-2.1-0.3-3.1-2.5-3.2l0.8-2.3
			c-3.8,2-7.5,3.6-11.1,4.7l-0.9-2.8c3.9-2,7.2-4.2,9.9-6.6l-3.3,0.4l2.9-10.3h-3.9l0.1-2.9h15.4l0.6-2.3h-4.7l-0.2,0.8l-6.8,0.8
			L402.8,117.2z M403.9,136.6h16.3l1.9-1.2h-22l3.9,0.5L403.9,136.6z M400.9,145l3.3,2.8c-1.1,0.7-2.2,1.3-3.3,1.9
			c1.1,0,2.2,0.1,3.2,0.2c0.7,0,1.1-0.2,1.2-0.6l1.4-4.9h-5l-0.2,0.6L400.9,145z M407.7,122.9h15.6l0.4-1.4h-15.6L407.7,122.9z
			 M406.5,127.2h15.6l0.4-1.4h-15.6L406.5,127.2z M402.6,141.4H419l0.5-1.8h-16.4L402.6,141.4z"/>
	</g>
	<path fill="#ffffff" d="M137.8,81.9L137.8,81.9L137.8,81.9h-30c-9.4,0-17.7,4-24.7,11.8c-2.8,3.2-5.2,6.7-7.1,10.4
		c-0.8-2.9-1.8-5.6-3.2-8.3c-3.1-5.9-7.3-10.6-12.5-13.8c-5.2-3.3-10.7-4.9-16.5-4.9c-1.6,0-3.7,0.1-6.4,0.4l8.4-28.6H84l3.5-11.7
		H37.4L21.1,91.9c6.7-2.7,13-4.1,18.8-4.1c7.4,0,13.6,2.6,18.4,7.7c4.8,5.2,7.2,11.9,7.2,20.1c0,9.7-3,17.5-8.9,23.2
		c-5.9,5.7-12.5,8.6-19.7,8.6c-5.4,0-10.4-1.6-14.9-4.8c-4.6-3.2-8.2-8-11-14.4L0,133c4.1,8.9,9.2,15.5,15.3,19.6
		c6.1,4.2,13.2,6.3,21.2,6.3c7.6,0,14.4-1.8,20.5-5.4c5.7-3.4,10.4-8.3,14.1-14.6c0.5,1.8,1.1,3.6,1.9,5.3c3.6,7.8,9.7,11.7,18,11.7
		h31.3h1.8l0.4-1.7l5.9-26.2c1.4-6.2,0.9-10.6-1.5-13.2l0,0l0,0c-1.8-1.9-4.8-2.8-9.1-2.8h-17.4h-2l-0.2,1.9l-0.9,8.1l-0.3,2.5h2.5
		h12.8c2.6,0,3.6,0.3,3.8,0.4c0.1,0.3,0.3,1.3-0.3,4l-3.3,14.8H93.4c-4.8,0-7.8-2-9.5-6.4l0,0l0,0c-1.7-4.3-1.8-10.1-0.4-17.3
		c1.5-7.3,4.1-13.3,7.8-17.8c4.1-5.1,8.8-7.5,14.4-7.5h29.6h1.6l0.5-1.6l2.5-8.2l0.9-2.8H137.8z"/>
	<path fill="#ffffff" d="M104.3,22.6l-2.2,7.6c24.9,3.1,41,20.4,38.8,41.7l9.3,0C152,47.1,133.3,27,104.3,22.6z M94.8,56.5l-4.3,15.4
		l18.7,0C110.9,63.7,104.7,57,94.8,56.5z M99.9,38.4l-2.5,8.7c15.5,1.1,25.4,11.7,23.1,24.8l10.6,0C133.5,54.6,120.4,40.5,99.9,38.4
		z"/>
</g>
</svg>
